<svg width="510" height="170" viewBox="0 0 510 170" fill="none" xmlns="http://www.w3.org/2000/svg">
    <rect x="0.5" y="0.5" width="509" height="169" rx="4.5" fill="black" stroke="#F7971D" />
    <rect x="271" y="24" width="210.476" height="121.429" rx="5" fill="#F7971D" />
    <path
        d="M62.4512 121.658C61.2467 122.537 59.8633 122.977 58.3008 122.977C56.7708 122.977 55.5339 122.586 54.5898 121.805C53.6784 120.991 53.2227 120.063 53.2227 119.021C53.2227 117.98 53.3854 117.215 53.7109 116.727C54.6549 117.28 56.1523 117.557 58.2031 117.557C59.0169 117.557 59.9121 117.15 60.8887 116.336C61.8652 115.49 62.6465 114.334 63.2324 112.869L63.2324 89.9688C63.2324 88.4388 62.9069 87.2995 62.2559 86.5508C61.2793 85.3789 59.6191 84.2233 57.2754 83.084C59.6517 81.9447 61.1491 81.0007 61.7676 80.252C62.7441 79.015 63.2324 77.6315 63.2324 76.1016L63.2812 54.8125C62.5 52.7617 60.7747 51.7363 58.1055 51.7363C56.7383 51.7363 55.7292 52.013 55.0781 52.5664C54.7526 52.1432 54.5898 51.5898 54.5898 50.9062C54.5898 50.2227 54.7363 49.6042 55.0293 49.0508C55.3223 48.4974 55.7292 48.0091 56.25 47.5859C57.3568 46.7396 58.8379 46.3164 60.6934 46.3164C62.5488 46.3164 64.0788 46.8535 65.2832 47.9277C66.3574 46.8535 67.6107 46.3164 69.043 46.3164C70.4753 46.3164 71.696 46.9186 72.7051 48.123C73.9746 46.9186 75.0977 46.3164 76.0742 46.3164C77.0508 46.3164 77.7995 46.3978 78.3203 46.5605C78.8411 46.7233 79.362 47.0326 79.8828 47.4883C80.9245 48.3021 82.015 49.946 83.1543 52.4199L101.855 91.2383L117.285 53.2012L118.652 50.0273C119.466 48.237 120.231 47.179 120.947 46.8535C121.663 46.4954 122.493 46.3164 123.438 46.3164C124.414 46.3164 125.407 46.6745 126.416 47.3906C127.653 46.6745 129.264 46.3164 131.25 46.3164C133.268 46.3164 135.01 46.8535 136.475 47.9277C137.777 46.8535 139.128 46.3164 140.527 46.3164C141.96 46.3164 143.066 46.4303 143.848 46.6582C144.661 46.8861 145.361 47.1953 145.947 47.5859C147.184 48.4648 147.803 49.5553 147.803 50.8574C147.803 51.5085 147.624 52.0781 147.266 52.5664C146.549 52.013 145.638 51.7363 144.531 51.7363C142.057 51.7363 140.381 52.8919 139.502 55.2031V76.1016C139.502 77.6966 139.844 78.8848 140.527 79.666C141.602 80.9355 143.245 82.0749 145.459 83.084C143.083 84.2559 141.569 85.2161 140.918 85.9648C139.974 87.1367 139.502 88.4714 139.502 89.9688V113.846C140.609 116.32 142.611 117.557 145.508 117.557C146.615 117.557 147.526 117.28 148.242 116.727C148.6 117.215 148.779 117.785 148.779 118.436C148.779 119.054 148.584 119.64 148.193 120.193C147.835 120.747 147.331 121.219 146.68 121.609C145.182 122.521 143.473 122.977 141.553 122.977C139.632 122.977 137.842 122.456 136.182 121.414C134.652 122.456 132.91 122.977 130.957 122.977C128.874 122.977 127.035 122.456 125.439 121.414C123.779 122.456 122.233 122.977 120.801 122.977C119.401 122.977 118.245 122.846 117.334 122.586C116.423 122.358 115.625 122.033 114.941 121.609C113.542 120.763 112.842 119.705 112.842 118.436C112.842 117.785 113.021 117.215 113.379 116.727C114.095 117.28 115.007 117.557 116.113 117.557C119.01 117.557 121.012 116.32 122.119 113.846V60.4766L103.076 107.645L100.977 112.43C99.9674 114.708 99.2513 115.994 98.8281 116.287C98.4375 116.58 98.112 116.727 97.8516 116.727C97.0378 116.727 96.4681 116.645 96.1426 116.482L70.0684 65.0664V112.82C70.6868 114.318 71.5332 115.49 72.6074 116.336C73.6816 117.15 74.8861 117.557 76.2207 117.557C77.5553 117.557 78.6947 117.28 79.6387 116.727C79.9967 117.312 80.1758 118.126 80.1758 119.168C80.1758 120.177 79.6712 121.072 78.6621 121.854C77.653 122.602 76.3509 122.977 74.7559 122.977C73.1608 122.977 71.696 122.57 70.3613 121.756C69.1895 122.57 67.8385 122.977 66.3086 122.977C64.8112 122.977 63.5254 122.537 62.4512 121.658ZM76.9531 60.916C76.6276 61.4043 76.4648 62.1042 76.4648 63.0156C76.4648 65.6523 77.5716 69.1517 79.7852 73.5137L97.5586 109.012C97.7865 108.719 97.9004 108.1 97.9004 107.156C97.9004 104.324 96.5495 100.174 93.8477 94.7051L76.9531 60.916ZM126.807 109.061C128.434 108.442 129.329 106.31 129.492 102.664C129.688 99.0182 129.785 93.9727 129.785 87.5273C129.785 81.082 129.769 76.8014 129.736 74.6855C129.736 72.5371 129.72 70.8118 129.688 69.5098C129.59 65.6686 129.215 63.3574 128.564 62.5762C127.946 61.7624 127.36 61.2253 126.807 60.9648V109.061ZM69.3848 109.695C69.3848 109.956 69.401 110.151 69.4336 110.281L69.3848 109.695ZM63.916 109.695C63.8835 109.826 63.8672 110.021 63.8672 110.281L63.916 109.695ZM174.219 122.977C172.07 122.977 170.166 122.456 168.506 121.414C166.846 122.456 165.299 122.977 163.867 122.977C162.467 122.977 161.312 122.846 160.4 122.586C159.489 122.358 158.691 122.033 158.008 121.609C156.608 120.763 155.908 119.705 155.908 118.436C155.908 117.785 156.087 117.215 156.445 116.727C157.161 117.28 158.073 117.557 159.18 117.557C162.077 117.557 164.079 116.32 165.186 113.846V89.9688C165.186 88.4714 164.876 87.3646 164.258 86.6484C163.281 85.444 161.605 84.2559 159.229 83.084C161.442 82.0749 162.874 81.1797 163.525 80.3984C164.632 79.1289 165.186 77.6966 165.186 76.1016V55.4961C164.079 52.9896 162.077 51.7363 159.18 51.7363C158.073 51.7363 157.161 52.013 156.445 52.5664C156.087 52.0781 155.908 51.5247 155.908 50.9063C155.908 50.2552 156.087 49.653 156.445 49.0996C156.836 48.5462 157.357 48.0742 158.008 47.6836C159.505 46.7721 161.214 46.3164 163.135 46.3164C165.088 46.3164 166.878 46.8535 168.506 47.9277C170.199 46.8535 171.989 46.3164 173.877 46.3164C175.798 46.3164 177.572 46.7233 179.199 47.5371C183.04 46.3978 186.605 45.8281 189.893 45.8281C193.18 45.8281 196.094 46.0072 198.633 46.3652C201.172 46.7233 203.597 47.3581 205.908 48.2695C208.219 49.1484 210.384 50.3366 212.402 51.834C214.453 53.3314 216.276 55.2031 217.871 57.4492C221.257 62.1693 223.421 68.4193 224.365 76.1992C224.561 78.1198 224.967 79.4707 225.586 80.252C226.628 81.5215 228.044 82.4655 229.834 83.084C227.946 83.8001 226.709 84.5326 226.123 85.2812C225.146 86.5182 224.561 88.0807 224.365 89.9688C223.291 100.776 219.661 109.109 213.477 114.969C207.52 120.633 199.788 123.465 190.283 123.465C186.475 123.465 183.057 122.879 180.029 121.707C178.564 122.553 176.628 122.977 174.219 122.977ZM183.154 114.334C184.717 116.092 186.784 116.971 189.355 116.971C191.96 116.971 194.206 116.466 196.094 115.457C198.014 114.415 199.626 112.82 200.928 110.672C203.564 106.277 204.883 99.3763 204.883 89.9688C204.883 87.918 204.557 86.5182 203.906 85.7695C203.027 84.7279 201.579 83.8327 199.561 83.084C201.546 82.4004 202.832 81.7168 203.418 81.0332C204.395 79.8613 204.883 78.3802 204.883 76.5898C204.883 74.7669 204.753 72.9603 204.492 71.1699C204.232 69.3796 203.809 67.6055 203.223 65.8477C202.669 64.0898 201.953 62.4134 201.074 60.8184C200.228 59.1908 199.202 57.7585 197.998 56.5215C195.361 53.8197 192.253 52.4688 188.672 52.4688C187.565 52.4688 186.491 52.5013 185.449 52.5664C184.408 52.599 183.643 52.9082 183.154 53.4941V114.334ZM207.422 60.9648C209.863 67.7682 211.084 73.5951 211.084 78.4453C211.084 80.1055 210.938 81.082 210.645 81.375C210.384 81.668 210.091 81.9284 209.766 82.1562C209.18 82.5469 208.545 82.8561 207.861 83.084C209.814 83.9629 210.84 84.8092 210.938 85.623C211.003 85.9811 211.035 86.3392 211.035 86.6973V87.918C211.035 92.3125 210.579 96.5768 209.668 100.711C208.757 104.813 208.073 107.596 207.617 109.061C209.082 108.637 210.14 107.677 210.791 106.18C211.475 104.65 212.044 103.022 212.5 101.297C212.988 99.5391 213.379 97.6836 213.672 95.7305C214.323 91.7266 214.648 87.5436 214.648 83.1816C214.648 75.3691 213.493 69.0703 211.182 64.2852C210.173 62.3971 208.919 61.2904 207.422 60.9648ZM169.873 109.061C171.501 108.442 172.396 106.31 172.559 102.664C172.754 99.0182 172.852 93.9727 172.852 87.5273C172.852 81.082 172.835 76.8014 172.803 74.6855C172.803 72.5371 172.786 70.8118 172.754 69.5098C172.656 65.6686 172.282 63.3574 171.631 62.5762C171.012 61.7624 170.426 61.2253 169.873 60.9648C169.873 72.293 169.678 78.7383 169.287 80.3008C168.831 81.6029 167.725 82.5306 165.967 83.084C167.92 83.7676 169.027 84.5977 169.287 85.5742C169.678 87.1367 169.873 92.8496 169.873 102.713V109.061Z"
        fill="white" />
    <path
        d="M295.312 109.59C294.149 110.319 292.828 110.684 291.347 110.684C289.866 110.684 288.544 110.319 287.382 109.59C286.22 110.319 285.137 110.684 284.135 110.684C283.155 110.684 282.346 110.592 281.708 110.41C281.07 110.251 280.512 110.023 280.033 109.727C279.053 109.134 278.563 108.394 278.563 107.505C278.563 107.049 278.689 106.65 278.939 106.309C279.441 106.696 280.079 106.89 280.854 106.89C282.882 106.89 284.283 106.024 285.058 104.292V87.5781C285.058 86.5299 284.841 85.7552 284.408 85.2539C283.725 84.4108 282.551 83.5791 280.888 82.7588C282.437 82.0524 283.44 81.4258 283.896 80.8789C284.67 79.9902 285.058 78.9876 285.058 77.8711V63.4473C284.283 61.6927 282.882 60.8154 280.854 60.8154C280.079 60.8154 279.441 61.0091 278.939 61.3965C278.689 61.0547 278.563 60.6673 278.563 60.2344C278.563 59.7786 278.689 59.3571 278.939 58.9697C279.213 58.5824 279.577 58.252 280.033 57.9785C281.081 57.3405 282.278 57.0215 283.622 57.0215C284.989 57.0215 286.243 57.3975 287.382 58.1494C288.567 57.3975 289.888 57.0215 291.347 57.0215C292.805 57.0215 294.127 57.3975 295.312 58.1494C296.451 57.3975 297.522 57.0215 298.524 57.0215C299.527 57.0215 300.347 57.1126 300.985 57.2949C301.623 57.4544 302.182 57.6823 302.66 57.9785C303.64 58.571 304.13 59.3115 304.13 60.2002C304.13 60.6559 304.005 61.0547 303.754 61.3965C303.253 61.0091 302.615 60.8154 301.84 60.8154C299.812 60.8154 298.41 61.6927 297.636 63.4473V77.8711C297.636 78.9876 297.875 79.8193 298.354 80.3662C299.105 81.2549 300.256 82.0524 301.806 82.7588C300.142 83.5791 299.083 84.2513 298.627 84.7754C297.966 85.5957 297.636 86.5299 297.636 87.5781V104.292C298.41 106.024 299.812 106.89 301.84 106.89C302.615 106.89 303.253 106.696 303.754 106.309C304.005 106.65 304.13 107.049 304.13 107.505C304.13 107.938 303.993 108.348 303.72 108.735C303.469 109.123 303.116 109.453 302.66 109.727C301.612 110.365 300.416 110.684 299.071 110.684C297.727 110.684 296.474 110.319 295.312 109.59ZM288.339 100.942C289.478 100.509 290.105 99.0169 290.219 96.4648C290.355 93.9128 290.424 90.3809 290.424 85.8691C290.424 81.3574 290.412 78.361 290.39 76.8799C290.39 75.376 290.378 74.1683 290.355 73.2568C290.287 70.568 290.025 68.9502 289.569 68.4033C289.136 67.8337 288.726 67.4577 288.339 67.2754C288.339 75.2051 288.202 79.7168 287.929 80.8105C287.61 81.722 286.835 82.3714 285.604 82.7588C286.972 83.2373 287.746 83.8184 287.929 84.502C288.202 85.5957 288.339 89.5947 288.339 96.499V100.942ZM341.728 110.684C339.403 110.684 337.592 109.43 336.293 106.924C334.675 108.792 332.51 110.023 329.799 110.615C329.001 110.775 328.215 110.854 327.44 110.854C322.655 110.854 318.941 109.339 316.298 106.309C313.882 103.506 312.527 99.541 312.23 94.4141C312.185 93.4115 311.957 92.6481 311.547 92.124C310.863 91.2581 309.701 90.4264 308.061 89.6289C310.749 88.3984 312.151 86.5072 312.265 83.9551C312.379 81.403 312.823 79.2269 313.598 77.4268C314.395 75.6038 315.455 74.1113 316.776 72.9492C319.306 70.7617 322.838 69.668 327.372 69.668C329.856 69.668 332.009 70.306 333.832 71.582C334.447 72.015 334.971 72.5163 335.404 73.0859V65.7373C335.404 63.1396 334.345 61.8408 332.226 61.8408C331.451 61.8408 330.813 62.0345 330.312 62.4219C329.993 61.9889 329.833 61.5446 329.833 61.0889C329.833 60.6104 329.947 60.1546 330.175 59.7217C330.425 59.2887 330.801 58.89 331.303 58.5254C332.374 57.7507 333.729 57.3633 335.37 57.3633C337.011 57.3633 338.287 57.4658 339.198 57.6709C340.451 56.0986 341.864 55.3125 343.437 55.3125C345.784 55.3125 346.957 56.543 346.957 59.0039V85.083C346.957 86.8148 348.347 88.3187 351.127 89.5947C348.347 90.848 346.957 92.3405 346.957 94.0723V104.326C347.618 106.035 348.563 106.89 349.794 106.89C350.569 106.89 351.207 106.696 351.708 106.309C352.027 106.742 352.187 107.288 352.187 107.949C352.187 108.587 351.856 109.202 351.195 109.795C350.557 110.387 349.589 110.684 348.29 110.684C346.991 110.684 345.784 110.319 344.667 109.59C343.687 110.319 342.707 110.684 341.728 110.684ZM338.686 100.942C339.825 100.509 340.44 99.1536 340.531 96.875C340.554 96.3509 340.565 95.7129 340.565 94.9609C340.588 94.1862 340.611 93.3317 340.634 92.3975C340.657 91.4632 340.668 90.5176 340.668 89.5605L340.736 86.8262C340.736 85.9375 340.736 85.1628 340.736 84.502C340.759 83.8184 340.771 83.2829 340.771 82.8955V82.3828C340.771 82.3145 340.759 81.9954 340.736 81.4258C340.736 80.8333 340.725 80.1156 340.702 79.2725C340.702 78.4066 340.691 77.4837 340.668 76.5039L340.6 73.6328C340.554 71.5365 340.474 70.2035 340.36 69.6338C340.178 68.4945 339.62 67.7083 338.686 67.2754V100.942ZM329.252 74.6582C325.606 74.6582 323.783 77.3356 323.783 82.6904V97.6611C323.783 101.831 325.162 104.417 327.919 105.42C328.694 105.716 329.457 105.864 330.209 105.864C330.984 105.864 331.679 105.716 332.294 105.42C332.932 105.101 333.479 104.691 333.935 104.189C334.914 103.073 335.404 101.74 335.404 100.19V82.6904C335.404 78.4977 334.128 75.957 331.576 75.0684C330.824 74.7949 330.049 74.6582 329.252 74.6582ZM318.212 100.942C318.531 100.692 318.69 100.407 318.69 100.088C318.69 99.5866 318.588 98.9486 318.383 98.1738C317.449 94.5964 316.981 92.124 316.981 90.7568C316.981 89.3669 317.027 88.2731 317.118 87.4756C317.209 86.6781 317.335 85.8919 317.494 85.1172C317.79 83.4766 318.087 82.0866 318.383 80.9473C318.588 80.1725 318.69 79.6484 318.69 79.375C318.69 78.8281 318.531 78.4294 318.212 78.1787C317.255 79.318 316.526 80.8561 316.024 82.793C315.523 84.7298 315.113 86.4274 314.794 87.8857C314.68 88.4782 314.008 89.0592 312.777 89.6289C314.008 90.1986 314.68 90.7796 314.794 91.3721C315.637 95.223 316.332 97.6611 316.879 98.6865C317.426 99.7119 317.87 100.464 318.212 100.942ZM386.366 99.6777C386.868 98.7207 387.79 98.2422 389.135 98.2422C390.046 98.2422 390.753 98.6182 391.254 99.3701C391.664 99.9626 391.869 100.692 391.869 101.558C391.869 102.401 391.653 103.255 391.22 104.121C390.787 104.987 390.194 105.773 389.442 106.479C388.69 107.186 387.825 107.812 386.845 108.359C385.888 108.906 384.862 109.362 383.769 109.727C381.513 110.479 379.166 110.854 376.728 110.854C374.289 110.854 371.999 110.456 369.857 109.658C367.738 108.838 365.915 107.699 364.389 106.24C361.404 103.369 359.581 99.4271 358.92 94.4141C358.76 93.2975 358.498 92.5 358.134 92.0215C357.45 91.1784 356.322 90.3695 354.75 89.5947C356.732 88.7061 357.997 87.2819 358.544 85.3223C358.703 84.7754 358.829 84.2285 358.92 83.6816C359.49 79.6712 361.518 76.2533 365.004 73.4277C368.376 70.6934 372.147 69.3262 376.317 69.3262C380.647 69.3262 384.395 70.8529 387.562 73.9062C390.844 77.0508 392.484 80.9131 392.484 85.4932C392.484 85.6527 392.473 85.8122 392.45 85.9717C392.45 86.1312 392.462 86.2793 392.484 86.416C392.53 86.7122 392.712 86.8831 393.031 86.9287C393.441 87.4528 393.646 88.0111 393.646 88.6035C393.646 89.9707 392.917 90.7796 391.459 91.0303C391.094 91.0986 390.525 91.1898 389.75 91.3037L370.473 94.3799V97.6611C370.473 100.304 371.27 102.401 372.865 103.95C374.369 105.431 376.272 106.172 378.573 106.172C381.011 106.172 382.971 105.671 384.452 104.668C385.842 103.711 386.537 102.458 386.537 100.908C386.537 100.544 386.48 100.133 386.366 99.6777ZM380.385 88.6377V79.0674C380.385 77.5635 380.089 76.4583 379.496 75.752C378.448 74.5443 377.411 73.9404 376.386 73.9404C375.36 73.9404 374.506 74.0999 373.822 74.4189C373.139 74.7152 372.546 75.1937 372.045 75.8545C370.997 77.2445 370.473 79.4092 370.473 82.3486V90.2441L380.385 88.6377ZM385.443 87.7832V86.7236C385.443 82.4854 385.09 79.9219 384.384 79.0332C384.065 78.6458 383.712 78.361 383.324 78.1787V88.125L385.443 87.7832ZM364.901 100.942C365.22 100.692 365.38 100.407 365.38 100.088C365.38 99.5866 365.277 98.9486 365.072 98.1738C364.138 94.5964 363.671 92.1126 363.671 90.7227C363.671 89.3099 363.716 88.2161 363.808 87.4414C363.899 86.6439 364.024 85.8464 364.184 85.0488C364.457 83.4993 364.753 82.1322 365.072 80.9473C365.277 80.1725 365.38 79.6484 365.38 79.375C365.38 78.8281 365.22 78.4294 364.901 78.1787C363.944 79.318 363.215 80.8447 362.714 82.7588C362.213 84.6729 361.802 86.359 361.483 87.8174C361.369 88.4326 360.697 89.0251 359.467 89.5947C360.697 90.1644 361.369 90.734 361.483 91.3037C362.326 95.1546 363.021 97.6042 363.568 98.6523C364.115 99.7005 364.56 100.464 364.901 100.942ZM422.016 106.753C419.942 109.487 416.832 110.854 412.685 110.854C407.626 110.854 403.832 109.339 401.303 106.309C400.209 105.01 399.457 103.563 399.047 101.968C398.819 101.011 398.42 100.282 397.851 99.7803C397.281 99.2562 396.575 98.7891 395.731 98.3789C397.372 97.627 398.546 96.2142 399.252 94.1406C400.004 91.9531 401.257 90.3695 403.012 89.3896C404.903 88.3643 406.988 87.8288 409.267 87.7832C411.545 87.7148 413.231 87.6351 414.325 87.5439C415.419 87.4528 416.387 87.3047 417.23 87.0996C418.803 86.735 420.033 86.0628 420.922 85.083V79.9561C420.922 77.7002 420.455 76.0482 419.521 75C418.609 73.9518 417.208 73.4277 415.316 73.4277C413.448 73.4277 412.058 73.7809 411.146 74.4873C410.258 75.1709 409.813 76.0938 409.813 77.2559C409.813 79.0332 410.725 79.8991 412.548 79.8535C412.183 81.6309 411.226 82.5195 409.677 82.5195C409.221 82.5195 408.777 82.4398 408.344 82.2803V82.3828C408.344 82.9753 408.617 83.3512 409.164 83.5107C408.594 84.3766 407.637 84.7982 406.293 84.7754C404.949 84.7526 403.9 84.0348 403.148 82.6221C402.807 82.7132 402.408 82.7588 401.952 82.7588C401.519 82.7588 401.029 82.6107 400.482 82.3145C399.958 82.0182 399.537 81.6081 399.218 81.084C400.357 80.4004 401.052 79.3408 401.303 77.9053C401.576 76.1507 402.978 74.3734 405.507 72.5732C408.56 70.4085 412.457 69.3262 417.196 69.3262C425.058 69.3262 429.854 71.7415 431.586 76.5723C432.156 78.1901 432.44 80.1042 432.44 82.3145V85.083C432.44 86.1995 432.714 87.111 433.261 87.8174C433.83 88.5238 434.787 89.1048 436.132 89.5605C434.696 90.2214 433.773 90.8138 433.363 91.3379C432.748 92.1354 432.44 93.0469 432.44 94.0723V104.326C433.101 106.035 434.047 106.89 435.277 106.89C436.052 106.89 436.69 106.696 437.191 106.309C437.51 106.742 437.67 107.288 437.67 107.949C437.67 108.587 437.34 109.202 436.679 109.795C436.041 110.387 435.072 110.684 433.773 110.684C432.475 110.684 431.267 110.319 430.15 109.59C429.171 110.319 428.293 110.684 427.519 110.684C426.767 110.684 426.106 110.604 425.536 110.444C424.989 110.308 424.477 110.08 423.998 109.761C422.927 109.054 422.266 108.052 422.016 106.753ZM424.169 100.942C425.491 100.418 426.186 97.9004 426.254 93.3887C426.254 92.4316 426.254 91.3379 426.254 90.1074C426.254 88.877 426.243 87.8288 426.22 86.9629C426.22 86.0742 426.208 85.2311 426.186 84.4336C426.094 81.5625 425.832 79.8535 425.399 79.3066C424.966 78.737 424.556 78.361 424.169 78.1787V100.942ZM411.557 98.5156C411.557 99.4727 411.659 100.407 411.864 101.318C412.069 102.23 412.377 103.027 412.787 103.711C413.699 105.146 414.986 105.864 416.649 105.864C417.903 105.864 418.939 105.352 419.76 104.326C420.535 103.324 420.922 102.036 420.922 100.464V89.3213C419.464 90.1644 417.595 90.7454 415.316 91.0645C412.81 91.4518 411.557 93.9355 411.557 98.5156ZM406.43 106.206C406.658 106.047 406.771 105.841 406.771 105.591C406.771 105.249 406.612 104.771 406.293 104.155C405.154 102.059 404.584 100.339 404.584 98.9941C404.584 97.6497 404.63 96.6813 404.721 96.0889C404.835 95.4964 404.971 94.9951 405.131 94.585C405.313 94.152 405.507 93.776 405.712 93.457C405.94 93.138 406.133 92.8532 406.293 92.6025C406.589 92.0785 406.737 91.7253 406.737 91.543C406.737 91.3379 406.635 91.167 406.43 91.0303C405.495 91.4632 404.812 91.9759 404.379 92.5684C403.604 93.6165 403.035 94.9723 402.67 96.6357C402.579 97.1143 401.781 97.6953 400.277 98.3789C401.736 99.0397 402.533 99.6208 402.67 100.122C403.445 102.834 404.698 104.862 406.43 106.206ZM448.881 109.18C447.331 110.661 445.839 111.401 444.403 111.401C443.606 111.401 443.059 111.105 442.763 110.513C443.287 109.989 443.549 109.465 443.549 108.94C443.549 108.416 443.469 108.018 443.31 107.744L442.865 106.958L443.412 107.983C442.865 107.733 442.444 107.311 442.147 106.719C441.851 106.126 441.703 105.409 441.703 104.565C441.703 103.7 442.182 102.72 443.139 101.626C442.683 100.988 442.455 100.282 442.455 99.5068C442.455 98.7321 442.58 98.0941 442.831 97.5928C443.104 97.0687 443.446 96.6016 443.856 96.1914C444.768 95.3255 445.736 94.8926 446.762 94.8926C447.445 94.8926 447.935 95.1318 448.231 95.6104C447.616 96.2712 447.309 97.3193 447.309 98.7549C447.309 100.168 447.548 101.375 448.026 102.378C448.528 103.381 449.2 104.235 450.043 104.941C451.82 106.445 454.008 107.197 456.605 107.197C459.499 107.197 461.505 106.138 462.621 104.019C462.94 103.381 463.1 102.743 463.1 102.104C463.1 101.444 462.951 100.863 462.655 100.361C462.359 99.8372 461.972 99.3359 461.493 98.8574C460.696 98.0827 459.477 97.194 457.836 96.1914C456.264 95.0749 454.407 94.5166 452.265 94.5166C450.875 94.5166 449.94 94.6305 449.462 94.8584C449.758 94.1748 449.906 93.4912 449.906 92.8076C449.906 92.124 449.451 91.3835 448.539 90.5859C447.628 89.7656 446.807 88.9453 446.078 88.125C445.372 87.3047 444.802 86.4844 444.369 85.6641C443.503 84.1146 443.07 82.474 443.07 80.7422C443.07 79.0104 443.424 77.4837 444.13 76.1621C444.859 74.8177 445.873 73.667 447.172 72.71C449.883 70.682 453.358 69.668 457.597 69.668C459.647 69.668 461.049 69.7591 461.801 69.9414C462.576 70.1237 463.191 70.2946 463.646 70.4541C464.262 70.682 465.014 70.7959 465.902 70.7959C466.791 70.7959 467.406 70.6022 467.748 70.2148C468.113 69.8275 468.295 69.4743 468.295 69.1553C468.295 68.8135 468.261 68.5514 468.192 68.3691C468.329 68.3236 468.534 68.3008 468.808 68.3008C469.081 68.3008 469.389 68.3805 469.73 68.54C470.095 68.6995 470.414 68.916 470.688 69.1895C471.234 69.8047 471.508 70.4655 471.508 71.1719C471.508 71.8555 471.371 72.3796 471.098 72.7441C471.736 73.3366 472.055 74.1797 472.055 75.2734C472.055 76.3672 471.599 77.29 470.688 78.042C470.893 78.4521 470.995 78.9535 470.995 79.5459C470.995 80.1383 470.676 80.708 470.038 81.2549C469.4 81.8018 468.796 82.0752 468.227 82.0752C467.247 82.0752 466.586 81.9499 466.244 81.6992C466.54 80.9701 466.688 80.1839 466.688 79.3408C466.688 78.4749 466.461 77.6546 466.005 76.8799C465.549 76.1051 464.968 75.4785 464.262 75C462.94 74.0885 461.368 73.6328 459.545 73.6328C457.243 73.6328 455.694 74.362 454.896 75.8203C454.646 76.276 454.521 76.7773 454.521 77.3242C454.521 77.8483 454.589 78.3382 454.726 78.7939C454.885 79.2269 455.136 79.6712 455.478 80.127C456.138 81.0156 457.073 81.8587 458.28 82.6562C459.853 83.6816 460.946 84.1943 461.562 84.1943C462.883 84.1943 464.034 83.8753 465.014 83.2373C464.74 84.3311 464.604 85.0944 464.604 85.5273C464.604 86.1882 465.128 86.9515 466.176 87.8174C469.115 89.8454 471.12 91.7025 472.191 93.3887C473.217 95.0293 473.729 96.8522 473.729 98.8574C473.729 100.863 473.285 102.583 472.396 104.019C471.508 105.431 470.3 106.65 468.773 107.676C465.606 109.795 461.767 110.854 457.255 110.854C454.179 110.854 451.387 110.296 448.881 109.18ZM447.685 77.8711C447.024 78.1901 446.693 79.0788 446.693 80.5371C446.693 81.9727 447.16 83.3512 448.095 84.6729C449.029 85.9717 450.51 87.4414 452.538 89.082C453.017 89.4466 453.256 89.7998 453.256 90.1416C453.256 90.6657 453.21 91.0872 453.119 91.4062C453.393 91.3379 453.871 91.2695 454.555 91.2012C456.218 91.0417 458.28 91.8164 460.741 93.5254C464.66 95.9408 466.62 98.4814 466.62 101.147C466.62 102.15 466.483 102.902 466.21 103.403C467.03 103.244 467.657 102.549 468.09 101.318C468.204 100.954 468.261 100.578 468.261 100.19C468.261 98.3447 467.258 96.4762 465.253 94.585C463.271 92.6709 460.411 90.8252 456.674 89.0479C450.476 85.9033 447.479 82.1777 447.685 77.8711Z"
        fill="black" />
</svg>